<svg width="28" height="28" viewBox="0 0 28 28" fill="none" xmlns="http://www.w3.org/2000/svg">
<path d="M15.1993 2.3345C16.0507 2.33124 16.902 2.33979 17.7531 2.36017L17.9795 2.36834C18.2408 2.37767 18.4986 2.38934 18.8101 2.40334C20.0515 2.46167 20.8985 2.65767 21.6416 2.94584C22.4116 3.24217 23.0603 3.6435 23.709 4.29217C24.3021 4.87504 24.7611 5.58011 25.0541 6.35834C25.3423 7.1015 25.5383 7.94967 25.5966 9.191C25.6106 9.50134 25.6223 9.76034 25.6316 10.0217L25.6386 10.248C25.6594 11.0987 25.6683 11.9497 25.6655 12.8007L25.6666 13.671V15.1993C25.6695 16.0507 25.6606 16.9021 25.6398 17.7532L25.6328 17.9795C25.6235 18.2408 25.6118 18.4987 25.5978 18.8102C25.5395 20.0515 25.3411 20.8985 25.0541 21.6417C24.7621 22.4207 24.3029 23.1264 23.709 23.709C23.1256 24.302 22.4202 24.761 21.6416 25.0542C20.8985 25.3423 20.0515 25.5383 18.8101 25.5967C18.4986 25.6107 18.2408 25.6223 17.9795 25.6317L17.7531 25.6387C16.902 25.6594 16.0507 25.6684 15.1993 25.6655L14.329 25.6667H12.8018C11.9505 25.6695 11.0991 25.6606 10.248 25.6398L10.0216 25.6328C9.74469 25.6228 9.4678 25.6111 9.19098 25.5978C7.94965 25.5395 7.10265 25.3412 6.35831 25.0542C5.57978 24.7617 4.87459 24.3026 4.29215 23.709C3.69837 23.126 3.23891 22.4205 2.94581 21.6417C2.65765 20.8985 2.46165 20.0515 2.40331 18.8102C2.39032 18.5333 2.37865 18.2564 2.36831 17.9795L2.36248 17.7532C2.34097 16.9021 2.33125 16.0507 2.33331 15.1993V12.8007C2.33006 11.9497 2.33862 11.0987 2.35898 10.248L2.36715 10.0217C2.37648 9.76034 2.38815 9.50134 2.40215 9.191C2.46048 7.9485 2.65648 7.10267 2.94465 6.35834C3.23792 5.57973 3.69827 4.87486 4.29331 4.29334C4.87536 3.69922 5.5801 3.23934 6.35831 2.94584C7.10265 2.65767 7.94848 2.46167 9.19098 2.40334L10.0216 2.36834L10.248 2.3625C11.0987 2.34101 11.9497 2.33128 12.8006 2.33334L15.1993 2.3345ZM14 8.16784C13.2271 8.15691 12.4597 8.2997 11.7425 8.58792C11.0252 8.87613 10.3724 9.30403 9.82197 9.84673C9.27153 10.3894 8.83445 11.0361 8.53612 11.7492C8.23778 12.4623 8.08415 13.2276 8.08415 14.0006C8.08415 14.7736 8.23778 15.5389 8.53612 16.2519C8.83445 16.965 9.27153 17.6117 9.82197 18.1544C10.3724 18.6971 11.0252 19.125 11.7425 19.4133C12.4597 19.7015 13.2271 19.8443 14 19.8333C15.5471 19.8333 17.0308 19.2188 18.1248 18.1248C19.2187 17.0308 19.8333 15.5471 19.8333 14C19.8333 12.4529 19.2187 10.9692 18.1248 9.87521C17.0308 8.78125 15.5471 8.16784 14 8.16784ZM14 10.5012C14.4649 10.4926 14.9269 10.5768 15.3589 10.7487C15.7909 10.9207 16.1844 11.1771 16.5162 11.5028C16.8481 11.8285 17.1117 12.2171 17.2917 12.6459C17.4716 13.0747 17.5644 13.535 17.5645 14C17.5645 14.465 17.472 14.9254 17.2921 15.3542C17.1123 15.783 16.8488 16.1717 16.5171 16.4975C16.1853 16.8234 15.792 17.0799 15.36 17.252C14.928 17.4241 14.4661 17.5084 14.0011 17.5C13.0729 17.5 12.1827 17.1313 11.5263 16.4749C10.8699 15.8185 10.5011 14.9283 10.5011 14C10.5011 13.0717 10.8699 12.1815 11.5263 11.5251C12.1827 10.8688 13.0729 10.5 14.0011 10.5L14 10.5012ZM20.125 6.41784C19.7486 6.4329 19.3927 6.59301 19.1317 6.86464C18.8707 7.13626 18.725 7.49833 18.725 7.875C18.725 8.25168 18.8707 8.61375 19.1317 8.88537C19.3927 9.157 19.7486 9.31711 20.125 9.33217C20.5118 9.33217 20.8827 9.17853 21.1562 8.90504C21.4297 8.63154 21.5833 8.26061 21.5833 7.87384C21.5833 7.48706 21.4297 7.11613 21.1562 6.84264C20.8827 6.56915 20.5118 6.4155 20.125 6.4155V6.41784Z" fill="black"/>
</svg>
