<svg width="27" height="28" viewBox="0 0 27 28" fill="none" xmlns="http://www.w3.org/2000/svg">
<path d="M3.85714 1.75C1.72969 1.75 0 3.31953 0 5.25V22.75C0 24.6805 1.72969 26.25 3.85714 26.25H23.1429C25.2703 26.25 27 24.6805 27 22.75V5.25C27 3.31953 25.2703 1.75 23.1429 1.75H3.85714ZM21.7627 6.34375L15.5069 12.8297L22.8656 21.6562H17.104L12.596 16.3023L7.43103 21.6562H4.5683L11.258 14.7164L4.20067 6.34375H10.1069L14.1871 11.2383L18.9 6.34375H21.7627ZM19.4846 20.1031L9.24509 7.81484H7.53951L17.8935 20.1031H19.4786H19.4846Z" fill="black"/>
</svg>
